<svg width="24" height="24" viewBox="0 0 24 24" fill="none" xmlns="http://www.w3.org/2000/svg">
<path fill-rule="evenodd" clip-rule="evenodd" d="M4 5C4 3.34315 5.34315 2 7 2H17C18.6569 2 20 3.34315 20 5V5.97076C20 6.93962 19.5321 7.84883 18.7437 8.41196L13.7205 12L18.7437 15.588C19.5321 16.1512 20 17.0604 20 18.0292V19C20 20.6569 18.6569 22 17 22H7C5.34315 22 4 20.6569 4 19V18.0292C4 17.0604 4.4679 16.1512 5.25629 15.588L10.2795 12L5.25629 8.41196C4.4679 7.84883 4 6.93962 4 5.97076V5ZM12 10.7711L17.5812 6.7845C17.844 6.59679 18 6.29372 18 5.97076V5C18 4.44772 17.5523 4 17 4H7C6.44772 4 6 4.44772 6 5V5.97076C6 6.29372 6.15597 6.59679 6.41876 6.7845L12 10.7711ZM12 13.2289L6.41876 17.2155C6.15597 17.4032 6 17.7063 6 18.0292V19C6 19.5523 6.44772 20 7 20H17C17.5523 20 18 19.5523 18 19V18.0292C18 17.7063 17.844 17.4032 17.5812 17.2155L12 13.2289Z" fill="#262626"/>
<path d="M16 20H8V19.5772C8 19.22 8.19054 18.8899 8.49987 18.7113L10.9997 17.2675C11.6187 16.91 12.3813 16.91 13.0003 17.2675L15.5001 18.7113C15.8095 18.8899 16 19.22 16 19.5772V20Z" fill="#171717"/>
</svg>
